<svg preserveAspectRatio="none" width="100%" height="100%" overflow="visible" style="display: block;" viewBox="0 0 22 14" fill="none" xmlns="http://www.w3.org/2000/svg">
<path id="Vector" d="M5 7H5.01M17 7H17.01M3 1H19C20.1046 1 21 1.89543 21 3V11C21 12.1046 20.1046 13 19 13H3C1.89543 13 1 12.1046 1 11V3C1 1.89543 1.89543 1 3 1ZM13 7C13 8.10457 12.1046 9 11 9C9.89543 9 9 8.10457 9 7C9 5.89543 9.89543 5 11 5C12.1046 5 13 5.89543 13 7Z" stroke="var(--stroke-0, #2C2C2C)" stroke-width="2" stroke-linecap="round" stroke-linejoin="round"/>
</svg>
