<svg preserveAspectRatio="none" width="100%" height="100%" overflow="visible" style="display: block;" viewBox="0 0 22 20" fill="none" xmlns="http://www.w3.org/2000/svg">
<path id="Vector" d="M11.0001 11H11.0101M15.0001 5V3C15.0001 2.46957 14.7894 1.96086 14.4143 1.58579C14.0393 1.21071 13.5305 1 13.0001 1H9.00011C8.46968 1 7.96097 1.21071 7.5859 1.58579C7.21082 1.96086 7.00011 2.46957 7.00011 3V5M21.0001 12C18.0329 13.959 14.5557 15.0033 11.0001 15.0033C7.44456 15.0033 3.96732 13.959 1.00011 12M3.00011 5H19.0001C20.1047 5 21.0001 5.89543 21.0001 7V17C21.0001 18.1046 20.1047 19 19.0001 19H3.00011C1.89554 19 1.00011 18.1046 1.00011 17V7C1.00011 5.89543 1.89554 5 3.00011 5Z" stroke="var(--stroke-0, #2C2C2C)" stroke-width="2" stroke-linecap="round" stroke-linejoin="round"/>
</svg>
