<svg preserveAspectRatio="none" width="100%" height="100%" overflow="visible" style="display: block;" viewBox="0 0 43 39" fill="none" xmlns="http://www.w3.org/2000/svg">
<path id="Vector" d="M21.036 13.0278V21.0278M21.036 29.0278H21.056M40.496 31.0278L24.496 3.02779C24.1471 2.4122 23.6412 1.90017 23.0298 1.54393C22.4185 1.18769 21.7236 1 21.016 1C20.3084 1 19.6135 1.18769 19.0021 1.54393C18.3908 1.90017 17.8849 2.4122 17.536 3.02779L1.53599 31.0278C1.18336 31.6385 0.998448 32.3316 1.00001 33.0368C1.00157 33.742 1.18955 34.4343 1.54488 35.0434C1.90022 35.6526 2.41029 36.157 3.02338 36.5055C3.63648 36.8539 4.33081 37.0341 5.03599 37.0278H37.036C37.7378 37.0271 38.427 36.8417 39.0346 36.4904C39.6421 36.139 40.1464 35.634 40.497 35.026C40.8476 34.4181 41.0321 33.7286 41.0319 33.0268C41.0317 32.325 40.8469 31.6356 40.496 31.0278Z" stroke="var(--stroke-0, #2C2C2C)" stroke-width="2" stroke-linecap="round" stroke-linejoin="round"/>
</svg>
