<svg preserveAspectRatio="none" width="100%" height="100%" overflow="visible" style="display: block;" viewBox="0 0 26 29" fill="none" xmlns="http://www.w3.org/2000/svg">
<path id="Vector" d="M25 5C25 7.20914 19.6274 9 13 9C6.37258 9 1 7.20914 1 5M25 5C25 2.79086 19.6274 1 13 1C6.37258 1 1 2.79086 1 5M25 5V23.6667C25 24.7275 23.7357 25.7449 21.4853 26.4951C19.2348 27.2452 16.1826 27.6667 13 27.6667C9.8174 27.6667 6.76516 27.2452 4.51472 26.4951C2.26428 25.7449 1 24.7275 1 23.6667V5M1 14.3333C1 15.3942 2.26428 16.4116 4.51472 17.1618C6.76516 17.9119 9.8174 18.3333 13 18.3333C16.1826 18.3333 19.2348 17.9119 21.4853 17.1618C23.7357 16.4116 25 15.3942 25 14.3333" stroke="var(--stroke-0, #2C2C2C)" stroke-width="2" stroke-linecap="round" stroke-linejoin="round"/>
</svg>
