<svg preserveAspectRatio="none" width="100%" height="100%" overflow="visible" style="display: block;" viewBox="0 0 29 29" fill="none" xmlns="http://www.w3.org/2000/svg">
<path id="Vector" d="M9.01458 14.327H14.3479M11.6812 19.6603V10.9936C11.6812 10.1096 12.0324 9.26172 12.6576 8.6366C13.2827 8.01148 14.1305 7.66029 15.0146 7.66029C15.8986 7.66029 16.7465 8.01148 17.3716 8.6366C17.9967 9.26172 18.3479 10.1096 18.3479 10.9936M9.01458 19.6603H18.3479M3.48125 9.82029C3.28663 8.94365 3.31652 8.03208 3.56812 7.17007C3.81973 6.30807 4.28491 5.52355 4.92054 4.88925C5.55617 4.25495 6.34166 3.79141 7.20419 3.54161C8.06672 3.29181 8.97836 3.26384 9.85458 3.46029C10.3369 2.70602 11.0013 2.0853 11.7865 1.65533C12.5718 1.22537 13.4526 1 14.3479 1C15.2432 1 16.124 1.22537 16.9093 1.65533C17.6946 2.0853 18.359 2.70602 18.8412 3.46029C19.7188 3.26298 20.632 3.29083 21.4959 3.54124C22.3598 3.79164 23.1464 4.25647 23.7824 4.89249C24.4184 5.52851 24.8832 6.31505 25.1336 7.17896C25.384 8.04286 25.4119 8.95606 25.2146 9.83362C25.9688 10.3159 26.5896 10.9803 27.0195 11.7656C27.4495 12.5508 27.6749 13.4317 27.6749 14.327C27.6749 15.2222 27.4495 16.1031 27.0195 16.8884C26.5896 17.6736 25.9688 18.338 25.2146 18.8203C25.411 19.6965 25.3831 20.6081 25.1333 21.4707C24.8835 22.3332 24.4199 23.1187 23.7856 23.7543C23.1513 24.39 22.3668 24.8551 21.5048 25.1067C20.6428 25.3583 19.7312 25.3882 18.8546 25.1936C18.3729 25.9508 17.708 26.5742 16.9214 27.006C16.1348 27.4379 15.2519 27.6644 14.3546 27.6644C13.4572 27.6644 12.5743 27.4379 11.7877 27.006C11.0011 26.5742 10.3362 25.9508 9.85458 25.1936C8.97836 25.3901 8.06672 25.3621 7.20419 25.1123C6.34166 24.8625 5.55617 24.399 4.92054 23.7647C4.28491 23.1304 3.81973 22.3458 3.56812 21.4838C3.31652 20.6218 3.28663 19.7103 3.48125 18.8336C2.72119 18.3526 2.09513 17.6872 1.66131 16.8992C1.22749 16.1113 1 15.2264 1 14.327C1 13.4275 1.22749 12.5426 1.66131 11.7547C2.09513 10.9667 2.72119 10.3013 3.48125 9.82029Z" stroke="var(--stroke-0, #2C2C2C)" stroke-width="2" stroke-linecap="round" stroke-linejoin="round"/>
</svg>
